<?xml version="1.0" standalone="no"?><svg version="1.1" xmlns="http://www.w3.org/2000/svg" width="817.8453046985761" height="461.4602780010998"><svg x="172.65234375" y="23.5" width="96.98182933622076" height="52.003437654101276"><path d="M8,26L45.98919584105974,26Q45.99091466811038,26,45.99091466811038,26.001718827050638L45.99091466811038,26.001718827050638Q45.99091466811038,26.003437654101276,45.992633495161016,26.003437654101276L83.98182933622076,26.003437654101276L45.992633495161016,26.003437654101276Q45.99091466811038,26.003437654101276,45.99091466811038,26.001718827050638L45.99091466811038,26.001718827050638Q45.99091466811038,26,45.98919584105974,26L8,26L8,26M18,22L18,30M73.98182933622076,22.003437654101276L73.98182933622076,30.003437654101276" fill="none" stroke="#3EA8DE" stroke-width="2"></path><text x="11" y="23" style="font-family: &quot;Open Sans&quot;, sans-serif; font-size: 14px; font-weight: normal; fill: rgb(215, 215, 217);">1</text><text x="72.97694652372076" y="23.003437654101276" style="font-family: &quot;Open Sans&quot;, sans-serif; font-size: 14px; font-weight: normal; fill: rgb(215, 215, 217);">1</text></svg><svg x="493.9120051174708" y="23.503437654101276" width="31.957961555761244" height="348.45684034699855"><path d="M8,26L18.957961555761244,26Q28.957961555761244,26,28.957961555761244,36L28.957961555761244,312.45684034699855Q28.957961555761244,322.45684034699855,18.957961555761244,322.45684034699855L8.957961555761244,322.45684034699855L18.957961555761244,322.45684034699855Q28.957961555761244,322.45684034699855,28.957961555761244,312.45684034699855L28.957961555761244,36Q28.957961555761244,26,18.957961555761244,26L8,26L8,26ZM18,22L18,30M8.957961555761244,318.45684034699855L18.957961555761244,322.45684034699855L8.957961555761244,326.45684034699855" fill="none" stroke="#3EA8DE" stroke-width="2"></path><text x="11" y="23" style="font-family: &quot;Open Sans&quot;, sans-serif; font-size: 14px; font-weight: normal; fill: rgb(215, 215, 217);">1</text><text x="11.957961555761244" y="319.45684034699855" style="font-family: &quot;Open Sans&quot;, sans-serif; font-size: 14px; font-weight: normal; fill: rgb(215, 215, 217);">*</text></svg><svg x="493.9120051174708" y="23.503437654101276" width="142.3815417686053" height="175.38026045762308"><path d="M8,26L58.69077088430265,26Q68.69077088430265,26,68.69077088430265,36L68.69077088430265,139.38026045762308Q68.69077088430265,149.38026045762308,78.69077088430265,149.38026045762308L129.3815417686053,149.38026045762308L78.69077088430265,149.38026045762308Q68.69077088430265,149.38026045762308,68.69077088430265,139.38026045762308L68.69077088430265,36Q68.69077088430265,26,58.69077088430265,26L8,26L8,26M18,22L18,30M129.3815417686053,145.38026045762308L119.3815417686053,149.38026045762308L129.3815417686053,153.38026045762308" fill="none" stroke="#3EA8DE" stroke-width="2"></path><text x="11" y="23" style="font-family: &quot;Open Sans&quot;, sans-serif; font-size: 14px; font-weight: normal; fill: rgb(215, 215, 217);">1</text><text x="118.6706042686053" y="146.38026045762308" style="font-family: &quot;Open Sans&quot;, sans-serif; font-size: 14px; font-weight: normal; fill: rgb(215, 215, 217);">*</text></svg><svg x="494.86996667323206" y="179.88369811172436" width="141.42358021284406" height="159.07657988937547"><path d="M8,133.07657988937547L58.21179010642203,133.07657988937547Q68.21179010642203,133.07657988937547,68.21179010642203,123.07657988937547L68.21179010642203,36Q68.21179010642203,26,78.21179010642203,26L128.42358021284406,26L78.21179010642203,26Q68.21179010642203,26,68.21179010642203,36L68.21179010642203,123.07657988937547Q68.21179010642203,133.07657988937547,58.21179010642203,133.07657988937547L8,133.07657988937547L8,133.07657988937547M18,129.07657988937547L18,137.07657988937547M128.42358021284406,22L118.42358021284406,26L128.42358021284406,30" fill="none" stroke="#3EA8DE" stroke-width="2"></path><text x="11" y="130.07657988937547" style="font-family: &quot;Open Sans&quot;, sans-serif; font-size: 14px; font-weight: normal; fill: rgb(215, 215, 217);">1</text><text x="117.71264271284406" y="23" style="font-family: &quot;Open Sans&quot;, sans-serif; font-size: 14px; font-weight: normal; fill: rgb(215, 215, 217);">*</text></svg><svg x="0" y="0"><rect x="0" y="0" width="180.65234375" height="33" fill="#222"></rect><text x="10" y="19.75" style="font-family: &quot;Open Sans&quot;, sans-serif; font-size: 13px; font-weight: bold; fill: rgb(255, 255, 255);">role</text></svg><svg x="0" y="33"><rect x="0" y="0" width="180.65234375" height="33" fill="#4B4C53"></rect><text x="10" y="19.75" style="font-family: &quot;Open Sans&quot;, sans-serif; font-size: 13px; font-weight: bold; fill: rgb(215, 215, 217);">role_id</text><text x="152.498046875" y="19.75" style="font-family: &quot;Open Sans&quot;, sans-serif; font-size: 13px; font-weight: bold; fill: rgb(215, 215, 217);">int</text></svg><svg x="0" y="66"><rect x="0" y="0" width="180.65234375" height="33" fill="#37383F"></rect><text x="10" y="19.75" style="font-family: &quot;Open Sans&quot;, sans-serif; font-size: 13px; fill: rgb(215, 215, 217);">name</text><text x="102.3515625" y="19.75" style="font-family: &quot;Open Sans&quot;, sans-serif; font-size: 13px; fill: rgb(215, 215, 217);">varchar(20)</text></svg><svg x="256.63417308622076" y="0.0034376541012761663"><rect x="0" y="0" width="245.27783203125" height="33" fill="#222"></rect><text x="10" y="19.75" style="font-family: &quot;Open Sans&quot;, sans-serif; font-size: 13px; font-weight: bold; fill: rgb(255, 255, 255);">user</text></svg><svg x="256.63417308622076" y="33.003437654101276"><rect x="0" y="0" width="245.27783203125" height="33" fill="#4B4C53"></rect><text x="10" y="19.75" style="font-family: &quot;Open Sans&quot;, sans-serif; font-size: 13px; font-weight: bold; fill: rgb(215, 215, 217);">user_id</text><text x="217.12353515625" y="19.75" style="font-family: &quot;Open Sans&quot;, sans-serif; font-size: 13px; font-weight: bold; fill: rgb(215, 215, 217);">int</text></svg><svg x="256.63417308622076" y="66.00343765410128"><rect x="0" y="0" width="245.27783203125" height="33" fill="#37383F"></rect><text x="10" y="19.75" style="font-family: &quot;Open Sans&quot;, sans-serif; font-size: 13px; fill: rgb(215, 215, 217);">role_id</text><text x="219.3896484375" y="19.75" style="font-family: &quot;Open Sans&quot;, sans-serif; font-size: 13px; fill: rgb(215, 215, 217);">int</text></svg><svg x="256.63417308622076" y="99.00343765410128"><rect x="0" y="0" width="245.27783203125" height="33" fill="#37383F"></rect><text x="10" y="19.75" style="font-family: &quot;Open Sans&quot;, sans-serif; font-size: 13px; fill: rgb(215, 215, 217);">nama_lengkap</text><text x="159.5439453125" y="19.75" style="font-family: &quot;Open Sans&quot;, sans-serif; font-size: 13px; fill: rgb(215, 215, 217);">varchar(100)</text></svg><svg x="256.63417308622076" y="132.00343765410128"><rect x="0" y="0" width="245.27783203125" height="33" fill="#37383F"></rect><text x="10" y="19.75" style="font-family: &quot;Open Sans&quot;, sans-serif; font-size: 13px; fill: rgb(215, 215, 217);">no_hp</text><text x="166.97705078125" y="19.75" style="font-family: &quot;Open Sans&quot;, sans-serif; font-size: 13px; fill: rgb(215, 215, 217);">varchar(20)</text></svg><svg x="256.63417308622076" y="165.00343765410128"><rect x="0" y="0" width="245.27783203125" height="33" fill="#37383F"></rect><text x="10" y="19.75" style="font-family: &quot;Open Sans&quot;, sans-serif; font-size: 13px; fill: rgb(215, 215, 217);">email</text><text x="159.5439453125" y="19.75" style="font-family: &quot;Open Sans&quot;, sans-serif; font-size: 13px; fill: rgb(215, 215, 217);">varchar(100)</text></svg><svg x="256.63417308622076" y="198.00343765410128"><rect x="0" y="0" width="245.27783203125" height="33" fill="#37383F"></rect><text x="10" y="19.75" style="font-family: &quot;Open Sans&quot;, sans-serif; font-size: 13px; fill: rgb(215, 215, 217);">password</text><text x="166.97705078125" y="19.75" style="font-family: &quot;Open Sans&quot;, sans-serif; font-size: 13px; fill: rgb(215, 215, 217);">varchar(10)</text></svg><svg x="314.61313073573206" y="263.4602780010998"><rect x="0" y="0" width="188.2568359375" height="33" fill="#222"></rect><text x="10" y="19.75" style="font-family: &quot;Open Sans&quot;, sans-serif; font-size: 13px; font-weight: bold; fill: rgb(255, 255, 255);">produk</text></svg><svg x="314.61313073573206" y="296.4602780010998"><rect x="0" y="0" width="188.2568359375" height="33" fill="#4B4C53"></rect><text x="10" y="19.75" style="font-family: &quot;Open Sans&quot;, sans-serif; font-size: 13px; font-weight: bold; fill: rgb(215, 215, 217);">produk_id</text><text x="160.1025390625" y="19.75" style="font-family: &quot;Open Sans&quot;, sans-serif; font-size: 13px; font-weight: bold; fill: rgb(215, 215, 217);">int</text></svg><svg x="314.61313073573206" y="329.4602780010998"><rect x="0" y="0" width="188.2568359375" height="33" fill="#4B4C53"></rect><text x="10" y="19.75" style="font-family: &quot;Open Sans&quot;, sans-serif; font-size: 13px; fill: rgb(215, 215, 217);">user_id</text><text x="162.36865234375" y="19.75" style="font-family: &quot;Open Sans&quot;, sans-serif; font-size: 13px; fill: rgb(215, 215, 217);">int</text></svg><svg x="314.61313073573206" y="362.4602780010998"><rect x="0" y="0" width="188.2568359375" height="33" fill="#37383F"></rect><text x="10" y="19.75" style="font-family: &quot;Open Sans&quot;, sans-serif; font-size: 13px; fill: rgb(215, 215, 217);">nama</text><text x="102.52294921875" y="19.75" style="font-family: &quot;Open Sans&quot;, sans-serif; font-size: 13px; fill: rgb(215, 215, 217);">varchar(255)</text></svg><svg x="314.61313073573206" y="395.4602780010998"><rect x="0" y="0" width="188.2568359375" height="33" fill="#37383F"></rect><text x="10" y="19.75" style="font-family: &quot;Open Sans&quot;, sans-serif; font-size: 13px; fill: rgb(215, 215, 217);">harga</text><text x="162.36865234375" y="19.75" style="font-family: &quot;Open Sans&quot;, sans-serif; font-size: 13px; fill: rgb(215, 215, 217);">int</text></svg><svg x="314.61313073573206" y="428.4602780010998"><rect x="0" y="0" width="188.2568359375" height="33" fill="#37383F"></rect><text x="10" y="19.75" style="font-family: &quot;Open Sans&quot;, sans-serif; font-size: 13px; fill: rgb(215, 215, 217);">stok</text><text x="162.36865234375" y="19.75" style="font-family: &quot;Open Sans&quot;, sans-serif; font-size: 13px; fill: rgb(215, 215, 217);">int</text></svg><svg x="623.2935468860761" y="90.38369811172436"><rect x="0" y="0" width="189.5517578125" height="33" fill="#222"></rect><text x="10" y="19.75" style="font-family: &quot;Open Sans&quot;, sans-serif; font-size: 13px; font-weight: bold; fill: rgb(255, 255, 255);">transaksi</text></svg><svg x="623.2935468860761" y="123.38369811172436"><rect x="0" y="0" width="189.5517578125" height="33" fill="#37383F"></rect><text x="10" y="19.75" style="font-family: &quot;Open Sans&quot;, sans-serif; font-size: 13px; font-weight: bold; fill: rgb(215, 215, 217);">transaksi_id</text><text x="161.3974609375" y="19.75" style="font-family: &quot;Open Sans&quot;, sans-serif; font-size: 13px; font-weight: bold; fill: rgb(215, 215, 217);">int</text></svg><svg x="623.2935468860761" y="156.38369811172436"><rect x="0" y="0" width="189.5517578125" height="33" fill="#4B4C53"></rect><text x="10" y="19.75" style="font-family: &quot;Open Sans&quot;, sans-serif; font-size: 13px; fill: rgb(215, 215, 217);">user_id</text><text x="163.66357421875" y="19.75" style="font-family: &quot;Open Sans&quot;, sans-serif; font-size: 13px; fill: rgb(215, 215, 217);">int</text></svg><svg x="623.2935468860761" y="189.38369811172436"><rect x="0" y="0" width="189.5517578125" height="33" fill="#4B4C53"></rect><text x="10" y="19.75" style="font-family: &quot;Open Sans&quot;, sans-serif; font-size: 13px; fill: rgb(215, 215, 217);">produk_id</text><text x="163.66357421875" y="19.75" style="font-family: &quot;Open Sans&quot;, sans-serif; font-size: 13px; fill: rgb(215, 215, 217);">int</text></svg><svg x="623.2935468860761" y="222.38369811172436"><rect x="0" y="0" width="189.5517578125" height="33" fill="#37383F"></rect><text x="10" y="19.75" style="font-family: &quot;Open Sans&quot;, sans-serif; font-size: 13px; fill: rgb(215, 215, 217);">quantity</text><text x="163.66357421875" y="19.75" style="font-family: &quot;Open Sans&quot;, sans-serif; font-size: 13px; fill: rgb(215, 215, 217);">int</text></svg><svg x="623.2935468860761" y="255.38369811172436"><rect x="0" y="0" width="189.5517578125" height="33" fill="#37383F"></rect><text x="10" y="19.75" style="font-family: &quot;Open Sans&quot;, sans-serif; font-size: 13px; fill: rgb(215, 215, 217);">tanggal</text><text x="114.259765625" y="19.75" style="font-family: &quot;Open Sans&quot;, sans-serif; font-size: 13px; fill: rgb(215, 215, 217);">timestamp</text></svg></svg>